<?xml version="1.0" standalone="no"?>
<!DOCTYPE svg PUBLIC "-//W3C//DTD SVG 20010904//EN"
 "http://www.w3.org/TR/2001/REC-SVG-20010904/DTD/svg10.dtd">
<svg version="1.0" xmlns="http://www.w3.org/2000/svg"
 width="40.000000pt" height="40.000000pt" viewBox="0 0 512.000000 512.000000"
 preserveAspectRatio="xMidYMid meet">

<g transform="translate(0.000000,512.000000) scale(0.100000,-0.100000)"
fill="#ffffff" stroke="none">
<path d="M732 4923 c-7 -3 -19 -18 -27 -33 -13 -25 -15 -134 -15 -760 l0 -730
-318 -211 c-174 -115 -329 -223 -345 -240 l-27 -30 2 -1345 3 -1346 24 -19
c23 -19 77 -19 2531 -19 2454 0 2508 0 2531 19 l24 19 3 1346 2 1345 -27 30
c-16 17 -171 125 -345 240 l-318 211 0 730 c0 774 0 776 -45 794 -20 7 -3634
7 -3653 -1z m3526 -1254 l-3 -1091 -708 -375 -708 -375 -125 83 c-85 56 -134
82 -154 82 -20 0 -69 -26 -154 -82 l-125 -83 -708 375 -708 375 -3 1091 -2
1091 1700 0 1700 0 -2 -1091z m-3568 -584 l0 -105 -162 0 -163 0 155 104 c85
58 158 105 163 105 4 1 7 -46 7 -104z m3908 0 l157 -105 -163 0 -162 0 0 105
c0 58 2 105 5 105 3 0 76 -47 163 -105z m-3908 -345 l0 -69 -77 41 c-43 23
-100 54 -128 70 l-50 28 128 0 127 0 0 -70z m3945 42 c-27 -16 -85 -47 -127
-70 l-78 -41 0 69 0 70 128 0 127 0 -50 -28z m-3490 -544 c531 -281 964 -515
963 -519 -3 -6 -1661 -1111 -1870 -1245 l-68 -44 0 1160 c0 638 2 1160 5 1160
3 0 440 -230 970 -512z m3805 -648 l0 -1160 -67 44 c-209 134 -1868 1239
-1871 1245 -2 7 1913 1029 1931 1030 4 1 7 -521 7 -1159z m-1297 -505 l1086
-720 -1089 -3 c-600 -1 -1580 -1 -2180 0 l-1089 3 1087 722 c598 397 1090 721
1093 720 4 -1 495 -326 1092 -722z"/>
<path d="M2433 4240 c-253 -46 -475 -223 -574 -459 -90 -215 -75 -479 38 -684
102 -182 272 -314 478 -369 73 -19 112 -21 453 -26 205 -2 389 -1 409 3 73 13
105 81 63 135 l-19 25 -408 6 c-446 6 -469 9 -583 70 -357 190 -431 679 -146
965 322 321 873 170 986 -271 27 -105 27 -228 0 -272 -44 -73 -139 -83 -196
-21 -30 33 -31 38 -37 157 -10 183 -52 272 -165 347 -222 149 -519 20 -562
-243 -23 -138 39 -280 154 -357 110 -73 236 -84 354 -31 34 15 67 34 73 41 9
11 22 4 69 -39 125 -116 293 -115 410 3 65 64 90 134 90 251 0 363 -225 659
-575 756 -64 17 -244 25 -312 13z m185 -521 c101 -49 136 -188 70 -285 -53
-78 -165 -106 -248 -62 -80 43 -122 135 -101 218 33 125 163 185 279 129z"/>
</g>
</svg>
