<?xml version="1.0" standalone="no"?>
<!DOCTYPE svg PUBLIC "-//W3C//DTD SVG 20010904//EN"
 "http://www.w3.org/TR/2001/REC-SVG-20010904/DTD/svg10.dtd">
<svg version="1.0" xmlns="http://www.w3.org/2000/svg"
 width="512.000000pt" height="512.000000pt" viewBox="0 0 512.000000 512.000000"
 preserveAspectRatio="xMidYMid meet">

<g transform="translate(0.000000,512.000000) scale(0.100000,-0.100000)"
fill="#000000" stroke="none">
<path d="M500 4561 c-87 -27 -172 -99 -211 -179 l-24 -47 -3 -917 c-2 -903 -2
-917 18 -971 51 -137 185 -217 362 -217 l48 0 0 -209 c0 -115 4 -221 10 -236
12 -32 56 -50 87 -36 12 5 198 118 413 251 l391 240 174 0 174 0 3 -502 3
-503 26 -55 c37 -80 72 -115 147 -152 l67 -33 737 -3 738 -3 357 -219 c197
-121 368 -220 381 -220 13 0 34 11 47 25 25 24 25 25 25 220 l0 195 53 0 c161
0 292 88 332 223 23 76 22 1609 0 1685 -19 62 -67 127 -122 164 -83 56 -107
58 -705 58 l-547 0 -3 593 -3 592 -23 58 c-28 69 -98 143 -167 177 l-50 25
-1355 2 c-745 1 -1366 -2 -1380 -6z m2726 -150 c49 -22 88 -70 103 -126 7 -27
11 -227 11 -602 l0 -562 -582 -3 -583 -3 -50 -25 c-64 -31 -124 -91 -155 -155
-24 -49 -25 -57 -28 -307 l-3 -258 -197 0 -197 0 -355 -219 -355 -219 -5 205
c-6 248 3 233 -149 233 -127 0 -170 11 -218 53 -66 58 -63 7 -63 982 0 849 1
887 19 923 23 45 46 66 91 86 31 13 202 15 1355 15 1268 1 1322 0 1361 -18z
m1411 -1453 c17 -10 42 -32 55 -50 l23 -33 3 -811 2 -811 -23 -34 c-45 -67
-76 -79 -202 -79 -98 0 -116 -3 -138 -21 l-27 -20 -2 -175 -3 -174 -310 192
-310 193 -757 5 c-748 5 -757 5 -785 26 -15 11 -38 36 -50 54 l-23 33 0 799
c0 884 -3 843 64 891 l31 22 620 5 c341 3 886 6 1210 5 541 0 593 -1 622 -17z"/>
<path d="M780 4020 c-27 -27 -26 -74 2 -100 22 -20 29 -20 1085 -20 1050 0
1063 0 1083 20 11 11 20 33 20 50 0 17 -9 39 -20 50 -20 20 -33 20 -1085 20
-1052 0 -1065 0 -1085 -20z"/>
<path d="M815 3473 c-34 -9 -55 -35 -55 -68 0 -70 -81 -65 1107 -65 1024 0
1071 1 1086 18 24 26 21 75 -4 98 -20 18 -54 19 -1068 20 -575 1 -1055 0
-1066 -3z"/>
<path d="M782 2887 c-27 -29 -28 -71 -2 -97 19 -19 33 -20 410 -20 l391 0 24
25 c14 13 25 33 25 45 0 12 -11 32 -25 45 l-24 25 -389 0 -389 0 -21 -23z"/>
<path d="M2364 2652 c-21 -13 -36 -54 -29 -79 13 -54 -11 -53 1068 -53 677 0
1004 3 1025 11 19 6 35 22 43 40 10 26 9 34 -8 57 l-20 27 -1034 2 c-569 2
-1039 -1 -1045 -5z"/>
<path d="M2355 2095 c-30 -30 -31 -54 -4 -89 l20 -26 1034 0 1034 0 21 27 c25
32 20 69 -12 96 -19 16 -84 17 -1045 17 l-1024 0 -24 -25z"/>
<path d="M2351 1544 c-26 -33 -26 -55 -2 -85 l19 -24 386 0 c418 0 407 -1 421
55 4 18 0 34 -15 53 l-21 27 -384 0 -384 0 -20 -26z"/>
</g>
</svg>
