<?xml version="1.0" standalone="no"?>
<!DOCTYPE svg PUBLIC "-//W3C//DTD SVG 20010904//EN"
 "http://www.w3.org/TR/2001/REC-SVG-20010904/DTD/svg10.dtd">
<svg version="1.0" xmlns="http://www.w3.org/2000/svg"
 width="25.000000pt" height="25.000000pt" viewBox="0 0 64.000000 64.000000"
 preserveAspectRatio="xMidYMid meet">

<g transform="translate(0.000000,64.000000) scale(0.100000,-0.100000)"
fill="#fff" stroke="none">
<path d="M180 494 c-121 -103 -135 -118 -135 -147 0 -22 5 -32 15 -32 12 0 16
-23 20 -125 l5 -125 85 0 85 0 3 88 3 87 59 0 59 0 3 -87 3 -88 34 -3 c29 -3
41 3 87 49 l54 53 0 72 c0 62 2 72 18 70 12 -1 18 8 20 29 3 27 -10 41 -133
150 -75 66 -140 121 -143 122 -4 1 -68 -50 -142 -113z m274 -26 c69 -61 126
-118 126 -126 0 -18 -3 -16 -125 92 -49 44 -100 89 -112 99 l-22 20 -117 -99
c-136 -115 -144 -120 -144 -101 0 13 246 227 261 227 3 0 63 -50 133 -112z
m-18 -44 l103 -89 1 -77 0 -77 -47 -3 -48 -3 -3 -47 c-3 -39 -7 -48 -22 -48
-17 0 -20 9 -22 88 l-3 87 -75 0 -75 0 -3 -87 -3 -88 -69 0 -70 0 1 133 0 132
106 88 c58 48 111 86 116 84 6 -2 57 -43 113 -93z m84 -267 c0 -2 -13 -16 -30
-32 l-30 -29 0 32 c0 29 3 32 30 32 17 0 30 -1 30 -3z"/>
<path d="M280 410 c-11 -11 -20 -29 -20 -40 0 -26 34 -60 60 -60 26 0 60 34
60 60 0 11 -9 29 -20 40 -11 11 -29 20 -40 20 -11 0 -29 -9 -40 -20z m70 -15
c26 -32 -13 -81 -47 -59 -23 14 -28 41 -13 59 16 19 44 19 60 0z"/>
<path d="M110 120 c0 -11 5 -20 10 -20 6 0 10 9 10 20 0 11 -4 20 -10 20 -5 0
-10 -9 -10 -20z"/>
<path d="M160 120 c0 -11 5 -20 10 -20 6 0 10 9 10 20 0 11 -4 20 -10 20 -5 0
-10 -9 -10 -20z"/>
<path d="M210 120 c0 -11 5 -20 10 -20 6 0 10 9 10 20 0 11 -4 20 -10 20 -5 0
-10 -9 -10 -20z"/>
</g>
</svg>
