<?xml version="1.0" standalone="no"?>
<!DOCTYPE svg PUBLIC "-//W3C//DTD SVG 20010904//EN"
 "http://www.w3.org/TR/2001/REC-SVG-20010904/DTD/svg10.dtd">
<svg version="1.0" xmlns="http://www.w3.org/2000/svg"
 width="512.000000pt" height="512.000000pt" viewBox="0 0 512.000000 512.000000"
 preserveAspectRatio="xMidYMid meet">

<g transform="translate(0.000000,512.000000) scale(0.100000,-0.100000)"
fill="#ffffff" stroke="none">
<path d="M2499 4825 c-62 -34 -59 15 -59 -876 0 -712 -2 -810 -15 -805 -8 3
-109 82 -224 175 -114 93 -225 181 -246 195 -108 73 -232 -26 -186 -147 8 -21
605 -515 718 -595 45 -32 106 -30 152 5 148 111 694 571 702 590 35 94 -30
181 -127 170 -37 -4 -69 -27 -279 -198 -129 -107 -240 -195 -245 -197 -6 -2
-10 293 -10 808 0 736 -2 813 -16 836 -34 50 -110 69 -165 39z"/>
<path d="M1120 3939 c-171 -28 -352 -148 -445 -293 -18 -28 -164 -296 -325
-596 -161 -300 -306 -565 -322 -590 l-29 -45 4 -670 c3 -656 3 -672 25 -754
91 -343 342 -593 692 -690 l95 -26 1745 0 1745 0 95 26 c350 97 601 347 692
690 22 82 22 99 25 746 l4 662 -37 78 c-20 43 -142 310 -271 593 -129 283
-255 545 -279 582 -102 153 -267 259 -451 287 -39 6 -156 11 -258 11 -207 0
-230 -6 -265 -63 -25 -41 -25 -83 0 -124 33 -55 46 -58 290 -63 204 -5 230 -8
283 -29 71 -28 149 -90 191 -151 24 -34 427 -901 461 -992 7 -17 -23 -18 -541
-18 -348 0 -563 -4 -586 -10 -23 -7 -47 -23 -61 -43 -13 -18 -68 -129 -122
-247 -124 -274 -143 -305 -210 -369 -67 -63 -137 -97 -230 -111 -91 -13 -879
-13 -970 0 -93 14 -183 57 -244 118 -54 54 -82 106 -211 387 -45 99 -91 194
-101 211 -36 60 -24 59 -620 64 l-545 5 253 470 c139 259 269 496 290 528 44
68 119 130 195 159 44 18 83 22 233 27 196 6 213 11 245 64 25 41 25 83 0 124
-34 56 -61 63 -232 62 -84 -1 -178 -5 -208 -10z m301 -1886 c106 -232 165
-329 240 -397 57 -52 152 -110 214 -133 110 -41 134 -42 675 -43 497 0 529 1
598 20 114 32 204 82 287 161 95 91 117 126 236 381 l99 213 550 3 551 2 -3
-587 c-3 -584 -3 -588 -27 -658 -43 -130 -123 -249 -226 -335 -59 -49 -207
-122 -285 -142 -81 -19 -3459 -19 -3540 0 -78 20 -226 93 -285 142 -103 86
-183 205 -226 335 -24 70 -24 74 -27 658 l-3 587 539 0 538 0 95 -207z"/>
</g>
</svg>
