<?xml version="1.0" standalone="no"?>
<!DOCTYPE svg PUBLIC "-//W3C//DTD SVG 20010904//EN"
 "http://www.w3.org/TR/2001/REC-SVG-20010904/DTD/svg10.dtd">
<svg version="1.0" xmlns="http://www.w3.org/2000/svg"
 width="23.000000pt" height="23.000000pt" viewBox="0 0 512.000000 512.000000"
 preserveAspectRatio="xMidYMid meet">
<metadata>
Created by potrace 1.16, written by Peter Selinger 2001-2019
</metadata>
<g transform="translate(0.000000,512.000000) scale(0.100000,-0.100000)"
fill="#ffffff" stroke="none">
<path d="M4025 5096 c-41 -19 -387 -362 -1852 -1828 -992 -992 -1803 -1807
-1803 -1811 0 -4 -83 -306 -185 -672 -102 -365 -185 -682 -185 -704 0 -47 35
-81 83 -81 17 0 335 84 706 186 l676 187 1803 1801 c1411 1410 1808 1812 1827
1850 34 68 34 161 1 231 -34 70 -779 814 -846 844 -65 29 -160 28 -225 -3z
m532 -539 c356 -355 383 -385 383 -417 0 -32 -21 -55 -265 -300 l-265 -265
-417 418 -418 417 265 265 c245 244 268 265 300 265 32 0 62 -27 417 -383z
m-1707 -2542 l-1430 -1430 -417 418 -418 417 1430 1430 1430 1430 417 -417
418 -418 -1430 -1430z m-1614 -1513 c-2 -1 -105 -31 -229 -66 l-226 -63 -204
206 -204 206 53 190 c30 105 59 208 65 229 l11 39 368 -368 c203 -203 368
-371 366 -373z m-786 -57 c68 -68 122 -126 120 -128 -9 -7 -344 -97 -347 -93
-6 5 90 346 97 346 3 0 61 -56 130 -125z"/>
</g>
</svg>
