<?xml version="1.0" standalone="no"?>
<!DOCTYPE svg PUBLIC "-//W3C//DTD SVG 20010904//EN"
 "http://www.w3.org/TR/2001/REC-SVG-20010904/DTD/svg10.dtd">
<svg version="1.0" xmlns="http://www.w3.org/2000/svg"
 width="512.000000pt" height="512.000000pt" viewBox="0 0 512.000000 512.000000"
 preserveAspectRatio="xMidYMid meet">

<g transform="translate(0.000000,512.000000) scale(0.100000,-0.100000)"
fill="#ffffff" stroke="none">
<path d="M1689 4771 c-36 -36 -37 -73 -4 -106 l24 -25 840 0 c603 0 847 3 865
11 29 14 51 59 41 89 -4 11 -16 30 -28 40 -20 20 -39 20 -865 20 l-844 0 -29
-29z"/>
<path d="M816 4219 c-20 -16 -26 -29 -26 -59 0 -30 6 -43 26 -59 24 -19 40
-21 165 -21 l139 0 0 -1705 c0 -1223 3 -1719 11 -1757 24 -114 98 -215 194
-266 l50 -27 1180 0 1180 0 50 27 c97 50 172 158 195 278 6 34 10 652 10 1751
l0 1699 144 0 c130 0 146 2 170 21 37 29 37 89 0 118 l-27 21 -1717 0 -1717 0
-27 -21z m3012 -1861 l-3 -1723 -31 -55 c-20 -36 -45 -63 -70 -77 l-39 -23
-1141 3 -1141 2 -35 27 c-20 15 -47 49 -59 75 l-24 48 -3 1723 -2 1722 1275 0
1275 0 -2 -1722z"/>
<path d="M1843 3585 c-16 -7 -33 -20 -37 -30 -10 -28 -7 -2614 4 -2635 28 -51
118 -38 139 20 8 24 11 382 11 1302 0 1061 -2 1274 -14 1302 -18 43 -59 59
-103 41z"/>
<path d="M2534 3592 c-12 -2 -30 -12 -40 -24 -18 -19 -19 -68 -19 -1329 0
-1295 0 -1309 20 -1328 32 -31 85 -31 115 -1 20 20 20 33 20 1326 0 832 -4
1312 -10 1324 -11 21 -55 37 -86 32z"/>
<path d="M3204 3590 c-12 -5 -29 -19 -38 -32 -14 -20 -16 -144 -16 -1319 0
-1296 0 -1296 21 -1323 29 -37 89 -37 118 0 l21 27 0 1298 0 1298 -22 25 c-27
29 -55 38 -84 26z"/>
</g>
</svg>
