<?xml version="1.0" standalone="no"?>
<!DOCTYPE svg PUBLIC "-//W3C//DTD SVG 20010904//EN"
 "http://www.w3.org/TR/2001/REC-SVG-20010904/DTD/svg10.dtd">
<svg version="1.0" xmlns="http://www.w3.org/2000/svg"
 width="25.000000pt" height="25.000000pt" viewBox="0 0 512.000000 512.000000"
 preserveAspectRatio="xMidYMid meet">

<g transform="translate(0.000000,512.000000) scale(0.100000,-0.100000)"
fill="#fff" stroke="none">
<path d="M1303 4785 c-208 -48 -375 -192 -456 -395 l-26 -65 -200 -5 c-218 -5
-226 -8 -275 -74 -29 -39 -29 -133 0 -172 49 -67 57 -69 276 -74 l201 -5 12
-35 c76 -220 257 -380 483 -427 146 -30 316 -1 450 79 116 68 229 210 276 345
l13 38 1321 5 c1314 5 1321 5 1348 26 53 39 69 71 69 134 0 63 -16 95 -69 134
-27 21 -34 21 -1348 26 l-1321 5 -13 38 c-47 135 -160 277 -276 345 -135 80
-320 110 -465 77z m288 -346 c67 -36 98 -68 137 -143 22 -43 26 -64 26 -136 1
-78 -2 -90 -33 -148 -38 -70 -70 -100 -145 -140 -43 -22 -64 -26 -136 -26 -72
0 -93 4 -136 26 -75 40 -107 70 -145 140 -31 58 -34 70 -33 148 0 100 24 160
89 225 100 100 249 121 376 54z"/>
<path d="M3543 3185 c-208 -48 -375 -192 -456 -395 l-26 -65 -1320 -5 c-1313
-5 -1320 -5 -1347 -26 -53 -39 -69 -71 -69 -134 0 -63 16 -95 69 -134 27 -21
34 -21 1348 -26 l1321 -5 12 -35 c76 -221 257 -380 483 -427 146 -30 316 -1
450 79 116 68 229 210 276 345 l13 38 201 5 c219 5 227 7 276 74 29 39 29 133
0 172 -49 67 -57 69 -276 74 l-201 5 -13 38 c-47 135 -160 277 -276 345 -135
80 -320 110 -465 77z m288 -346 c67 -36 98 -68 137 -143 22 -43 26 -64 26
-136 1 -78 -2 -90 -33 -148 -38 -70 -70 -100 -145 -140 -43 -22 -64 -26 -136
-26 -72 0 -93 4 -136 26 -75 40 -107 70 -145 140 -31 58 -34 70 -33 148 0 100
24 160 89 225 100 100 249 121 376 54z"/>
<path d="M1303 1585 c-208 -48 -375 -192 -456 -395 l-26 -65 -200 -5 c-218 -5
-226 -8 -275 -74 -29 -39 -29 -133 0 -172 49 -67 57 -69 276 -74 l201 -5 12
-35 c76 -220 257 -380 483 -427 146 -30 316 -1 450 79 116 68 229 210 276 345
l13 38 1321 5 c1314 5 1321 5 1348 26 53 39 69 71 69 134 0 63 -16 95 -69 134
-27 21 -34 21 -1348 26 l-1321 5 -13 38 c-47 135 -160 277 -276 345 -135 80
-320 110 -465 77z m288 -346 c67 -36 98 -68 137 -143 22 -43 26 -64 26 -136 1
-78 -2 -90 -33 -148 -38 -70 -70 -100 -145 -140 -43 -22 -64 -26 -136 -26 -72
0 -93 4 -136 26 -75 40 -107 70 -145 140 -31 58 -34 70 -33 148 0 100 24 160
89 225 100 100 249 121 376 54z"/>
</g>
</svg>
