<?xml version="1.0" standalone="no"?>
<!DOCTYPE svg PUBLIC "-//W3C//DTD SVG 20010904//EN"
 "http://www.w3.org/TR/2001/REC-SVG-20010904/DTD/svg10.dtd">
<svg version="1.0" xmlns="http://www.w3.org/2000/svg"
 width="512.000000pt" height="512.000000pt" viewBox="0 0 512.000000 512.000000"
 preserveAspectRatio="xMidYMid meet">
<metadata>
Created by potrace 1.16, written by Peter Selinger 2001-2019
</metadata>
<g transform="translate(0.000000,512.000000) scale(0.100000,-0.100000)"
fill="#ffffff" stroke="none">
<path d="M190 4911 c0 -6 16 -45 35 -87 26 -56 32 -80 25 -90 -6 -7 -41 -32
-78 -56 l-66 -43 90 -3 90 -3 18 -84 c10 -47 22 -85 25 -85 3 0 23 38 44 84
42 92 47 95 132 97 28 0 61 4 75 8 23 6 21 9 -40 50 -36 24 -66 45 -68 46 -1
1 5 39 14 85 8 45 14 84 12 86 -2 2 -35 -19 -72 -46 l-68 -49 -80 49 c-86 54
-88 55 -88 41z"/>
<path d="M4310 4805 c0 -2 16 -40 35 -84 19 -43 35 -83 35 -88 0 -4 -27 -25
-59 -46 -97 -63 -97 -67 2 -67 l85 0 17 -77 c10 -43 20 -82 23 -87 2 -5 26 31
51 80 l46 89 89 7 c49 4 91 10 93 12 2 2 -26 22 -62 46 -72 47 -72 48 -54 144
5 31 9 61 7 66 -2 5 -33 -12 -69 -39 l-66 -49 -79 49 c-75 46 -94 55 -94 44z"/>
<path d="M2240 4214 c-572 -50 -1050 -339 -1347 -814 -240 -386 -315 -882
-199 -1330 36 -142 39 -148 83 -156 106 -20 522 35 816 107 832 205 1630 562
2087 933 108 88 250 226 250 244 0 23 -85 176 -153 276 -258 377 -672 642
-1127 720 -95 16 -324 28 -410 20z"/>
<path d="M4311 4009 c-69 -12 -159 -40 -232 -72 -119 -54 -335 -202 -321 -221
5 -6 53 -67 107 -134 95 -119 100 -124 129 -117 172 35 236 -11 207 -152 -16
-80 -60 -149 -170 -265 -406 -428 -1244 -857 -2221 -1137 -607 -173 -988 -220
-1216 -147 -89 28 -136 56 -168 99 -49 66 -11 227 68 294 l33 28 -10 100 c-5
55 -10 101 -11 102 -6 6 -139 -32 -191 -54 -228 -101 -325 -276 -312 -567 5
-130 18 -180 77 -296 113 -224 301 -344 640 -407 138 -25 589 -25 785 0 453
59 922 181 1358 353 1012 400 1760 885 2064 1339 152 228 200 393 191 662 -5
123 -9 160 -30 218 -30 86 -62 137 -123 197 -131 130 -438 213 -654 177z"/>
<path d="M3945 1791 c-6 -5 -62 -41 -125 -79 -414 -250 -1008 -511 -1410 -621
-142 -39 -381 -91 -641 -140 -143 -27 -263 -51 -265 -54 -8 -8 171 -85 296
-126 68 -23 181 -54 250 -68 112 -24 146 -27 325 -27 208 -1 292 10 450 55
383 110 708 340 940 664 99 138 231 405 201 405 -6 0 -16 -4 -21 -9z"/>
<path d="M4111 971 c43 -98 79 -183 79 -188 0 -5 -71 -58 -157 -118 l-158
-110 40 -3 c22 -2 104 -2 183 0 78 2 142 1 142 -2 0 -13 81 -344 85 -348 2 -2
44 77 94 176 l90 180 43 5 c24 4 112 12 196 18 83 7 152 15 152 18 0 5 -175
122 -272 182 -8 5 20 198 48 333 8 39 2 36 -154 -77 l-130 -95 -171 104 c-94
57 -175 104 -180 104 -5 0 26 -81 70 -179z"/>
</g>
</svg>
