<?xml version="1.0" standalone="no"?>
<!DOCTYPE svg PUBLIC "-//W3C//DTD SVG 20010904//EN"
 "http://www.w3.org/TR/2001/REC-SVG-20010904/DTD/svg10.dtd">
<svg version="1.0" xmlns="http://www.w3.org/2000/svg"
 width="512.000000pt" height="512.000000pt" viewBox="0 0 512.000000 512.000000"
 preserveAspectRatio="xMidYMid meet">

<g transform="translate(0.000000,512.000000) scale(0.100000,-0.100000)"
fill="#000000" stroke="none">
<path d="M3005 4109 c-1094 -555 -2212 -1123 -2483 -1261 -408 -207 -495 -255
-507 -278 -21 -42 -18 -74 9 -108 22 -25 131 -64 950 -342 l926 -313 0 -594
c0 -543 1 -597 17 -624 20 -34 69 -53 109 -43 20 5 175 152 482 455 439 435
454 448 480 438 184 -70 2009 -679 2035 -679 23 0 46 8 64 24 l28 24 3 2114
c1 1464 -1 2121 -8 2139 -13 30 -58 59 -92 59 -12 0 -918 -455 -2013 -1011z
m301 -748 l-1359 -1359 -531 180 c-292 99 -647 219 -789 266 -141 48 -257 90
-257 93 0 7 4269 2178 4285 2178 5 1 -602 -611 -1349 -1358z m1610 -2359 c-3
-2 -78 20 -168 50 l-163 55 -5 552 -5 553 -34 30 c-28 25 -39 29 -70 24 -23
-3 -46 -17 -63 -36 l-28 -30 0 -511 c0 -405 -3 -510 -12 -507 -7 3 -505 171
-1105 374 -601 203 -1093 372 -1093 376 0 4 618 627 1373 1384 l1372 1376 3
-1842 c1 -1014 0 -1845 -2 -1848z m-2184 519 c4 -4 -136 -150 -312 -326 l-320
-320 0 432 0 432 313 -106 c171 -58 315 -109 319 -112z"/>
<path d="M4445 2651 c-64 -27 -81 -110 -32 -158 60 -61 162 -19 162 67 0 66
-72 116 -130 91z"/>
<path d="M884 1028 c-305 -305 -394 -400 -399 -425 -13 -66 52 -131 118 -118
25 5 120 94 425 399 l392 392 0 43 c0 60 -41 101 -101 101 l-43 0 -392 -392z"/>
<path d="M2977 563 c-198 -197 -372 -376 -388 -397 -39 -53 -38 -89 5 -132 43
-43 79 -44 132 -5 21 16 200 190 397 388 l357 359 0 46 c0 63 -35 98 -98 98
l-46 0 -359 -357z"/>
<path d="M266 404 c-20 -21 -26 -37 -26 -69 0 -59 36 -95 95 -95 32 0 48 6 69
26 20 21 26 37 26 69 0 59 -36 95 -95 95 -32 0 -48 -6 -69 -26z"/>
</g>
</svg>
