<?xml version="1.0" standalone="no"?>
<!DOCTYPE svg PUBLIC "-//W3C//DTD SVG 20010904//EN"
 "http://www.w3.org/TR/2001/REC-SVG-20010904/DTD/svg10.dtd">
<svg version="1.0" xmlns="http://www.w3.org/2000/svg"
 width="512.000000pt" height="512.000000pt" viewBox="0 0 512.000000 512.000000"
 preserveAspectRatio="xMidYMid meet">
<metadata>
Created by potrace 1.16, written by Peter Selinger 2001-2019
</metadata>
<g transform="translate(0.000000,512.000000) scale(0.100000,-0.100000)"
fill="#000000" stroke="none">
<path d="M2442 5094 c-29 -14 -65 -42 -82 -62 -51 -62 -60 -107 -60 -292 0
-131 -3 -170 -15 -187 -8 -12 -48 -34 -87 -49 -40 -15 -100 -40 -133 -56 -98
-46 -101 -45 -240 92 -141 138 -183 163 -281 163 -45 0 -75 -7 -106 -22 -26
-14 -129 -108 -255 -234 -245 -244 -258 -264 -251 -382 3 -39 13 -85 23 -104
24 -48 309 -336 350 -356 63 -29 127 11 127 80 0 34 -12 49 -161 200 -143 144
-161 166 -161 196 0 29 21 54 202 236 184 185 205 203 236 203 31 0 49 -14
157 -120 140 -137 178 -159 274 -160 53 0 80 7 165 43 55 24 128 55 161 68 36
14 77 40 102 65 61 62 73 112 73 311 0 161 0 164 25 188 l24 25 289 0 c281 0
289 -1 308 -21 17 -19 20 -43 24 -208 5 -182 6 -187 34 -239 38 -68 75 -95
204 -147 59 -24 127 -52 152 -64 61 -28 159 -28 220 0 29 13 89 64 166 140
107 105 125 119 155 119 31 0 52 -18 237 -203 183 -184 202 -205 202 -236 0
-30 -14 -48 -119 -155 -76 -77 -127 -137 -140 -166 -28 -61 -28 -159 0 -220
12 -25 40 -93 64 -152 52 -129 79 -166 147 -204 52 -28 57 -29 239 -34 165 -4
189 -7 208 -24 20 -19 21 -27 21 -308 l0 -289 -25 -24 c-24 -25 -27 -25 -188
-25 -199 0 -249 -12 -311 -73 -25 -25 -51 -66 -65 -102 -13 -33 -44 -106 -68
-161 -36 -85 -43 -112 -43 -165 1 -96 23 -134 160 -274 106 -108 120 -126 120
-157 0 -31 -18 -52 -203 -236 -182 -181 -207 -202 -236 -202 -30 0 -52 18
-197 162 -147 145 -168 162 -198 162 -73 0 -116 -67 -83 -130 21 -40 315 -327
358 -349 19 -10 65 -20 104 -23 119 -7 138 5 388 256 236 237 249 257 249 358
1 95 -25 139 -162 279 -137 139 -138 142 -92 240 16 33 41 93 56 133 15 39 37
79 49 87 17 12 56 15 187 15 185 0 230 9 292 60 20 17 48 53 62 82 l26 52 0
320 c0 301 -2 324 -21 366 -27 60 -64 98 -124 126 -46 22 -63 24 -213 24 -224
0 -214 -5 -281 156 -81 195 -85 172 58 318 139 142 165 186 164 282 -1 103
-18 127 -257 364 -238 236 -261 253 -361 253 -96 0 -139 -25 -280 -164 -146
-143 -123 -139 -319 -58 -161 67 -156 57 -156 281 0 142 -3 169 -21 208 -27
60 -64 98 -124 126 -49 23 -54 24 -371 24 l-320 0 -52 -26z"/>
<path d="M2640 3915 c-174 -28 -350 -102 -491 -207 -107 -80 -143 -121 -143
-162 0 -102 106 -126 184 -41 71 77 232 167 377 212 79 24 104 27 248 27 174
1 219 -7 362 -64 219 -88 416 -286 506 -510 55 -137 62 -179 61 -355 0 -145
-3 -168 -28 -249 -44 -144 -134 -305 -211 -376 -61 -57 -71 -116 -26 -161 60
-59 119 -28 229 120 216 291 276 662 166 1013 -104 330 -382 608 -712 712
-172 54 -349 68 -522 41z"/>
<path d="M1473 3411 c-79 -20 -153 -87 -182 -164 -6 -16 -11 -58 -11 -95 0
-37 -5 -84 -11 -105 -9 -35 -17 -42 -75 -68 -91 -42 -105 -39 -178 31 -79 75
-131 100 -216 100 -99 0 -133 -21 -297 -182 -176 -174 -209 -228 -201 -331 7
-77 26 -117 89 -182 76 -79 82 -96 57 -165 -37 -101 -41 -104 -161 -111 -89
-6 -113 -11 -156 -34 -54 -30 -93 -73 -117 -130 -17 -43 -20 -467 -3 -529 14
-52 103 -141 155 -155 21 -6 70 -11 107 -11 100 0 131 -17 162 -86 38 -86 35
-106 -33 -178 -72 -77 -95 -123 -100 -203 -7 -102 22 -151 191 -319 169 -169
202 -189 307 -189 91 0 130 19 219 100 70 66 89 69 174 31 70 -32 87 -63 87
-163 0 -37 5 -86 11 -107 14 -52 103 -141 155 -155 62 -17 486 -14 529 3 57
24 100 63 130 117 22 41 28 67 32 138 6 130 6 128 76 162 93 43 114 40 189
-30 88 -82 118 -95 208 -96 54 0 86 5 115 19 48 23 335 307 360 356 10 20 20
66 23 106 6 91 -15 140 -97 228 -71 76 -73 89 -32 180 26 58 33 66 68 75 21 6
69 11 106 11 109 0 183 42 233 132 l29 53 0 240 c0 234 -1 241 -24 287 -51 99
-118 137 -260 147 -74 5 -104 11 -119 24 -21 19 -62 117 -62 148 0 10 28 49
62 86 78 86 98 129 98 213 0 104 -24 142 -201 316 -178 175 -204 190 -317 182
-82 -6 -110 -20 -196 -97 -42 -38 -75 -61 -90 -61 -37 0 -134 47 -149 72 -9
14 -17 60 -20 114 -7 136 -45 203 -147 256 -43 22 -56 23 -265 25 -121 1 -234
-2 -252 -6z m459 -198 c19 -20 23 -37 28 -125 10 -162 57 -226 210 -287 144
-57 230 -40 347 69 97 91 96 91 270 -83 174 -174 174 -173 83 -270 -109 -117
-126 -203 -69 -347 61 -153 125 -200 287 -210 150 -9 146 -3 150 -228 4 -185
-5 -244 -36 -260 -9 -5 -58 -12 -109 -15 -156 -10 -225 -57 -285 -196 -28 -65
-33 -87 -33 -156 1 -96 12 -121 96 -211 88 -95 87 -97 -68 -256 -123 -125
-164 -158 -197 -158 -8 0 -46 27 -83 61 -80 71 -107 87 -171 99 -66 12 -132
-3 -229 -50 -119 -59 -163 -128 -163 -260 0 -77 -14 -126 -40 -140 -11 -6
-107 -10 -218 -10 -244 0 -236 -4 -245 136 -10 165 -59 234 -208 294 -61 25
-95 32 -142 32 -80 0 -127 -21 -196 -86 -60 -57 -89 -76 -117 -76 -22 0 -303
278 -310 307 -8 29 9 58 72 124 65 69 86 116 86 196 0 47 -7 81 -31 141 -60
149 -130 199 -292 209 -144 9 -139 1 -139 245 0 111 4 207 10 218 14 26 63 40
140 40 145 0 216 53 281 209 59 141 41 232 -69 354 -43 47 -62 75 -62 94 0 20
32 58 143 170 173 174 174 174 271 84 90 -84 115 -95 211 -96 69 0 91 5 156
33 136 58 186 129 195 274 10 162 5 159 266 155 179 -2 188 -3 210 -24z"/>
<path d="M1610 2473 c-205 -31 -389 -133 -505 -281 -62 -78 -122 -196 -147
-289 -31 -118 -29 -289 6 -406 57 -191 161 -332 323 -438 131 -85 260 -122
428 -121 197 1 356 62 525 202 81 67 96 86 145 185 67 136 89 234 89 385 0
148 -15 212 -82 349 -81 167 -251 314 -433 375 -115 38 -253 54 -349 39z m271
-203 c235 -73 418 -316 419 -556 1 -167 -92 -361 -222 -465 -59 -47 -168 -100
-242 -118 -68 -17 -209 -15 -280 4 -198 52 -362 216 -422 420 -23 81 -23 221
0 300 65 220 237 383 451 430 87 18 209 13 296 -15z"/>
</g>
</svg>
