<?xml version="1.0" standalone="no"?>
<!DOCTYPE svg PUBLIC "-//W3C//DTD SVG 20010904//EN"
 "http://www.w3.org/TR/2001/REC-SVG-20010904/DTD/svg10.dtd">
<svg version="1.0" xmlns="http://www.w3.org/2000/svg"
 width="500.000000pt" height="500.000000pt" viewBox="0 0 500.000000 500.000000"
 preserveAspectRatio="xMidYMid meet">

<g transform="translate(0.000000,500.000000) scale(0.100000,-0.100000)"
fill="#ffffff" stroke="none">
<path d="M1394 4018 c19 -35 131 -346 251 -698 118 -349 218 -636 220 -638 16
-16 48 47 189 369 88 200 175 398 194 439 l35 75 146 -440 c100 -301 152 -441
162 -443 12 -2 55 131 198 610 101 337 192 637 203 666 11 29 34 68 52 87 l33
35 -111 -1 c-72 0 -104 -3 -90 -9 33 -13 64 -59 64 -94 0 -24 -280 -1019 -306
-1086 -3 -8 -84 233 -181 535 -172 541 -175 551 -161 590 8 24 23 45 38 52 21
11 3 13 -120 13 -104 -1 -140 -4 -127 -11 28 -16 70 -111 128 -286 l53 -161
-144 -339 c-180 -423 -181 -426 -186 -421 -2 3 -87 251 -189 552 -115 340
-185 563 -185 587 0 26 7 46 20 59 l20 20 -120 0 -120 0 34 -62z"/>
<path d="M2190 2445 l0 -685 379 0 378 0 6 43 c4 23 9 57 13 76 l7 34 -49 -50
c-72 -75 -108 -83 -370 -83 -180 0 -215 2 -228 16 -14 14 -16 89 -16 675 l0
659 -60 0 -60 0 0 -685z"/>
<path d="M3487 1466 c-16 -13 -13 -27 50 -231 55 -179 64 -220 55 -236 -11
-18 -9 -19 38 -19 l51 0 -20 28 c-10 15 -49 126 -86 247 -37 121 -68 221 -69
222 0 1 -9 -4 -19 -11z"/>
<path d="M503 1443 c8 -16 47 -126 87 -246 40 -120 78 -216 83 -214 5 1 37 67
72 145 34 79 64 145 67 147 2 2 23 -55 47 -128 55 -167 60 -181 66 -175 3 3
35 104 70 224 36 120 72 231 81 247 l15 27 -36 0 c-34 0 -35 -1 -20 -16 9 -10
14 -24 12 -33 -66 -232 -101 -349 -106 -359 -10 -19 -125 350 -119 382 5 25 3
26 -40 26 -36 0 -42 -2 -33 -14 6 -7 22 -45 35 -83 l24 -69 -56 -132 c-31 -73
-59 -128 -63 -124 -15 17 -131 385 -126 403 4 16 0 19 -34 19 l-40 0 14 -27z"/>
<path d="M1301 1461 c-11 -7 0 -51 53 -225 53 -173 65 -220 56 -236 -10 -19
-8 -20 34 -20 l45 0 -19 43 c-10 23 -46 133 -81 245 -34 111 -65 202 -68 202
-3 0 -12 -4 -20 -9z"/>
<path d="M1570 1225 c0 -238 1 -245 20 -245 19 0 20 7 20 245 0 238 -1 245
-20 245 -19 0 -20 -7 -20 -245z"/>
<path d="M1740 1225 c0 -238 1 -245 20 -245 19 0 20 7 20 245 0 238 -1 245
-20 245 -19 0 -20 -7 -20 -245z"/>
<path d="M1945 1459 c11 -6 26 -19 33 -28 12 -14 13 -13 10 9 -2 20 -9 26 -33
28 -27 2 -28 1 -10 -9z"/>
<path d="M2060 1272 c0 -172 2 -202 18 -232 25 -48 76 -73 123 -60 40 11 119
64 119 80 0 6 -18 -3 -41 -19 -73 -54 -122 -50 -159 12 -18 29 -20 52 -20 225
0 185 -1 192 -20 192 -19 0 -20 -7 -20 -198z"/>
<path d="M2328 1274 c-4 -261 -1 -294 23 -294 18 0 19 11 19 245 0 237 -1 245
-20 245 -18 0 -19 -9 -22 -196z"/>
<path d="M2650 1225 l0 -245 135 0 c75 0 135 4 135 9 0 5 3 17 7 27 5 14 1 13
-23 -5 -27 -19 -40 -21 -120 -19 l-89 3 -3 238 c-2 229 -3 237 -22 237 -19 0
-20 -7 -20 -245z"/>
<path d="M3000 1225 l0 -245 23 0 22 0 -3 245 c-3 236 -3 245 -22 245 -19 0
-20 -8 -20 -245z"/>
<path d="M3205 1458 c11 -6 26 -18 33 -26 10 -14 12 -12 12 11 0 24 -4 27 -32
27 -30 -1 -31 -2 -13 -12z"/>
<path d="M3750 1225 c0 -237 1 -245 20 -245 18 0 20 8 22 118 l3 117 45 3 45
3 49 -105 c53 -116 58 -121 101 -131 17 -4 25 -3 19 2 -6 4 -37 59 -68 121
-56 112 -56 112 -34 121 43 16 78 61 78 100 0 89 -74 140 -202 141 l-78 0 0
-245z m181 212 c64 -43 70 -141 12 -187 -20 -15 -40 -20 -89 -20 l-64 0 0 115
0 115 54 0 c39 0 62 -6 87 -23z"/>
<path d="M4140 1442 c20 -27 21 -39 18 -245 -2 -140 1 -217 7 -217 6 0 9 76 7
212 l-3 213 148 -213 148 -213 3 42 c2 23 -1 45 -5 48 -5 3 -71 95 -148 204
-125 178 -141 197 -167 197 l-29 0 21 -28z"/>
<path d="M4463 1454 c-3 -8 -1 -88 4 -177 l9 -162 5 178 c4 161 -1 205 -18
161z"/>
<path d="M1922 1260 c-7 -11 -20 -20 -30 -20 -15 -1 -14 -2 3 -12 11 -6 26
-18 33 -26 10 -13 12 -8 12 31 0 26 -1 47 -3 47 -1 0 -8 -9 -15 -20z"/>
<path d="M3184 1255 l-20 -22 23 -27 23 -27 0 50 c0 28 -1 51 -2 50 -2 -1 -12
-11 -24 -24z"/>
<path d="M1139 1010 l-27 -30 35 0 c31 0 33 2 23 20 -6 11 -8 25 -5 30 11 18
0 10 -26 -20z"/>
<path d="M3322 1009 l-24 -29 30 0 c26 0 28 3 24 30 -2 17 -5 30 -6 29 0 0
-11 -13 -24 -30z"/>
<path d="M3230 998 l-35 -18 33 0 c20 0 35 6 39 15 8 23 2 23 -37 3z"/>
</g>
</svg>
